<svg width="784.0224365234375px" height="239.151171875px" xmlns="http://www.w3.org/2000/svg" viewBox="-142.01121826171874 -44.575585937499994 784.0224365234375 239.151171875" style="background: rgba(0, 0, 0, 0);" preserveAspectRatio="xMidYMid"><defs><filter id="editing-vr"><feFlood flood-color="#eee9e9" flood-opacity="0.7" result="c1"></feFlood><feFlood flood-color="#666666" flood-opacity="0.7" result="c3"></feFlood><feComposite operator="in" in="c1" in2="SourceAlpha" result="text-c1"></feComposite><feComposite operator="in" in="c3" in2="SourceAlpha" result="text-c3"></feComposite><feOffset in="text-c1" dx="5" dy="-1" result="text1"></feOffset><feOffset in="text-c3" dx="-5" dy="1" result="text3"></feOffset><feBlend in="SourceGraphic" in2="text1" mode="multiply" result="text4"></feBlend><feBlend in="text4" in2="text3" mode="multiply"></feBlend></filter></defs><g filter="url(#editing-vr)"><g transform="translate(-27.994990348815918, 133.9765625)"><path d="M53.07-11.43L53.07-11.43L53.07-11.43Q53.07-2.79 49.92 3.62L49.92 3.62L49.92 3.62Q46.78 10.03 41.32 14.31L41.32 14.31L41.32 14.31Q35.86 18.60 28.47 20.73L28.47 20.73L28.47 20.73Q21.07 22.85 12.63 22.85L12.63 22.85L12.63 22.85Q9.39 22.85 6.41 22.31L6.41 22.31L6.41 22.31Q3.43 21.77 1.14 20.82L1.14 20.82L1.14 20.82Q-1.14 19.87-2.51 18.57L-2.51 18.57L-2.51 18.57Q-3.87 17.27-3.87 15.74L-3.87 15.74L-3.87 15.74Q-3.87 14.60-3.55 13.43L-3.55 13.43L-3.55 13.43Q-3.24 12.25-2.60 11.30L-2.60 11.30L-2.60 11.30Q-1.97 10.35-1.05 9.71L-1.05 9.71L-1.05 9.71Q-0.13 9.08 1.02 9.08L1.02 9.08L1.02 9.08Q1.71 9.08 2.25 9.78L2.25 9.78L2.25 9.78Q2.79 10.47 3.36 11.52L3.36 11.52L3.36 11.52Q3.94 12.57 4.67 13.77L4.67 13.77L4.67 13.77Q5.40 14.98 6.57 16.03L6.57 16.03L6.57 16.03Q7.74 17.08 9.39 17.77L9.39 17.77L9.39 17.77Q11.04 18.47 13.52 18.47L13.52 18.47L13.52 18.47Q18.41 18.47 21.93 16.69L21.93 16.69L21.93 16.69Q25.45 14.92 27.74 11.68L27.74 11.68L27.74 11.68Q30.02 8.44 31.14 3.97L31.14 3.97L31.14 3.97Q32.25-0.51 32.25-5.84L32.25-5.84L32.25-84.74L32.25-84.74Q32.25-86.14 31.93-86.96L31.93-86.96L31.93-86.96Q31.61-87.79 31.04-88.26L31.04-88.26L31.04-88.26Q30.47-88.74 29.68-88.90L29.68-88.90L29.68-88.90Q28.88-89.06 27.93-89.06L27.93-89.06L27.93-89.06Q26.53-89.06 24.47-88.61L24.47-88.61L24.47-88.61Q22.41-88.17 20.12-87.28L20.12-87.28L20.12-87.28Q17.84-86.39 15.52-85.09L15.52-85.09L15.52-85.09Q13.20-83.79 11.39-82.14L11.39-82.14L11.39-82.14Q9.58-80.49 8.44-78.46L8.44-78.46L8.44-78.46Q7.30-76.43 7.30-74.08L7.30-74.08L7.30-74.08Q7.30-72.05 7.84-70.84L7.84-70.84L7.84-70.84Q8.38-69.63 9.08-69.03L9.08-69.03L9.08-69.03Q9.78-68.43 10.51-68.27L10.51-68.27L10.51-68.27Q11.24-68.11 11.55-68.11L11.55-68.11L11.55-68.11Q13.14-68.11 14.16-68.65L14.16-68.65L14.16-68.65Q15.17-69.19 16.00-69.79L16.00-69.79L16.00-69.79Q16.82-70.40 17.55-70.94L17.55-70.94L17.55-70.94Q18.28-71.47 19.23-71.47L19.23-71.47L19.23-71.47Q20.00-71.47 20.85-71.13L20.85-71.13L20.85-71.13Q21.71-70.78 22.44-70.01L22.44-70.01L22.44-70.01Q23.17-69.25 23.68-68.02L23.68-68.02L23.68-68.02Q24.18-66.78 24.18-65L24.18-65L24.18-65Q24.18-62.46 23.20-60.62L23.20-60.62L23.20-60.62Q22.22-58.78 20.66-57.54L20.66-57.54L20.66-57.54Q19.11-56.30 17.11-55.70L17.11-55.70L17.11-55.70Q15.11-55.10 13.14-55.10L13.14-55.10L13.14-55.10Q10.09-55.10 7.65-56.15L7.65-56.15L7.65-56.15Q5.21-57.19 3.49-59.03L3.49-59.03L3.49-59.03Q1.78-60.87 0.89-63.35L0.89-63.35L0.89-63.35Q0-65.83 0-68.62L0-68.62L0-68.62Q0-73.00 1.59-76.65L1.59-76.65L1.59-76.65Q3.17-80.30 5.94-83.22L5.94-83.22L5.94-83.22Q8.70-86.14 12.41-88.33L12.41-88.33L12.41-88.33Q16.12-90.52 20.44-91.98L20.44-91.98L20.44-91.98Q24.76-93.44 29.45-94.17L29.45-94.17L29.45-94.17Q34.15-94.90 38.85-94.90L38.85-94.90L38.85-94.90Q44.05-94.90 46.94-93.91L46.94-93.91L46.94-93.91Q49.83-92.93 51.19-91.53L51.19-91.53L51.19-91.53Q52.56-90.14 52.81-88.61L52.81-88.61L52.81-88.61Q53.07-87.09 53.07-86.07L53.07-86.07L53.07-11.43ZM112.04-43.93L86.96-29.14L86.96-29.14Q86.96-27.10 87.57-24.72L87.57-24.72L87.57-24.72Q88.17-22.34 89.31-19.93L89.31-19.93L89.31-19.93Q90.45-17.52 92.14-15.33L92.14-15.33L92.14-15.33Q93.82-13.14 96.01-11.43L96.01-11.43L96.01-11.43Q98.20-9.71 100.86-8.70L100.86-8.70L100.86-8.70Q103.53-7.68 106.70-7.68L106.70-7.68L106.70-7.68Q108.93-7.68 110.83-8.19L110.83-8.19L110.83-8.19Q112.73-8.70 114.38-9.58L114.38-9.58L114.38-9.58Q116.04-10.47 117.56-11.65L117.56-11.65L117.56-11.65Q119.08-12.82 120.61-14.16L120.61-14.16L122.19-12.63L122.19-12.63Q120.73-10.66 118.45-8.32L118.45-8.32L118.45-8.32Q116.16-5.97 112.92-3.90L112.92-3.90L112.92-3.90Q109.69-1.84 105.37-0.48L105.37-0.48L105.37-0.48Q101.05 0.89 95.53 0.89L95.53 0.89L95.53 0.89Q90.01 0.89 84.77-1.11L84.77-1.11L84.77-1.11Q79.54-3.11 75.47-7.11L75.47-7.11L75.47-7.11Q71.41-11.11 68.97-17.08L68.97-17.08L68.97-17.08Q66.52-23.04 66.52-31.04L66.52-31.04L66.52-31.04Q66.52-36.82 67.98-41.64L67.98-41.64L67.98-41.64Q69.44-46.46 71.95-50.34L71.95-50.34L71.95-50.34Q74.46-54.21 77.79-57.13L77.79-57.13L77.79-57.13Q81.12-60.05 84.80-61.98L84.80-61.98L84.80-61.98Q88.49-63.92 92.33-64.90L92.33-64.90L92.33-64.90Q96.17-65.89 99.72-65.89L99.72-65.89L99.72-65.89Q104.42-65.89 107.91-64.87L107.91-64.87L107.91-64.87Q111.40-63.86 113.72-62.14L113.72-62.14L113.72-62.14Q116.04-60.43 117.18-58.18L117.18-58.18L117.18-58.18Q118.32-55.92 118.32-53.45L118.32-53.45L118.32-53.45Q118.32-50.46 116.61-48.08L116.61-48.08L116.61-48.08Q114.89-45.70 112.04-43.93L112.04-43.93ZM86.33-34.34L99.72-42.02L99.72-42.02Q100.55-42.53 101.09-43.01L101.09-43.01L101.09-43.01Q101.63-43.48 101.94-44.15L101.94-44.15L101.94-44.15Q102.26-44.81 102.42-45.80L102.42-45.80L102.42-45.80Q102.58-46.78 102.58-48.24L102.58-48.24L102.58-48.24Q102.58-49.83 102.23-51.77L102.23-51.77L102.23-51.77Q101.88-53.70 101.05-55.42L101.05-55.42L101.05-55.42Q100.23-57.13 98.96-58.27L98.96-58.27L98.96-58.27Q97.69-59.41 95.91-59.41L95.91-59.41L95.91-59.41Q93.63-59.41 92.01-58.05L92.01-58.05L92.01-58.05Q90.39-56.68 89.34-54.53L89.34-54.53L89.34-54.53Q88.30-52.37 87.69-49.61L87.69-49.61L87.69-49.61Q87.09-46.85 86.77-44.05L86.77-44.05L86.77-44.05Q86.46-41.26 86.39-38.69L86.39-38.69L86.39-38.69Q86.33-36.12 86.33-34.34L86.33-34.34ZM151.14-60.81L151.14-60.81L151.14-60.81Q149.68-60.81 148.38-60.43L148.38-60.43L148.38-60.43Q147.08-60.05 146.06-59.19L146.06-59.19L146.06-59.19Q145.04-58.33 144.47-57.03L144.47-57.03L144.47-57.03Q143.90-55.73 143.90-53.96L143.90-53.96L143.90-53.96Q143.90-51.48 145.71-49.04L145.71-49.04L145.71-49.04Q147.52-46.59 150.22-43.96L150.22-43.96L150.22-43.96Q152.92-41.32 156.06-38.50L156.06-38.50L156.06-38.50Q159.20-35.67 161.90-32.53L161.90-32.53L161.90-32.53Q164.59-29.39 166.40-25.83L166.40-25.83L166.40-25.83Q168.21-22.28 168.21-18.22L168.21-18.22L168.21-18.22Q168.21-13.65 166.66-10.09L166.66-10.09L166.66-10.09Q165.10-6.54 162.21-4.06L162.21-4.06L162.21-4.06Q159.33-1.59 155.23-0.29L155.23-0.29L155.23-0.29Q151.14 1.02 146.12 1.02L146.12 1.02L146.12 1.02Q141.74 1.02 138.19-0.22L138.19-0.22L138.19-0.22Q134.63-1.46 131.87-3.27L131.87-3.27L131.87-3.27Q129.11-5.08 127.14-7.11L127.14-7.11L127.14-7.11Q125.18-9.14 124.10-10.79L124.10-10.79L126.32-12.38L126.32-12.38Q127.14-11.43 128.41-10.31L128.41-10.31L128.41-10.31Q129.68-9.20 131.24-8.25L131.24-8.25L131.24-8.25Q132.79-7.30 134.57-6.70L134.57-6.70L134.57-6.70Q136.35-6.09 138.19-6.09L138.19-6.09L138.19-6.09Q142.76-6.09 145.68-8.28L145.68-8.28L145.68-8.28Q148.60-10.47 148.60-14.79L148.60-14.79L148.60-14.79Q148.60-17.20 147.01-19.77L147.01-19.77L147.01-19.77Q145.42-22.34 143.01-25.07L143.01-25.07L143.01-25.07Q140.60-27.80 137.81-30.72L137.81-30.72L137.81-30.72Q135.01-33.64 132.60-36.75L132.60-36.75L132.60-36.75Q130.19-39.86 128.60-43.16L128.60-43.16L128.60-43.16Q127.02-46.46 127.02-50.02L127.02-50.02L127.02-50.02Q127.02-54.02 128.64-57.00L128.64-57.00L128.64-57.00Q130.25-59.99 132.95-61.95L132.95-61.95L132.95-61.95Q135.65-63.92 139.11-64.90L139.11-64.90L139.11-64.90Q142.57-65.89 146.25-65.89L146.25-65.89L146.25-65.89Q150.50-65.89 153.99-65.13L153.99-65.13L153.99-65.13Q157.49-64.37 159.99-62.81L159.99-62.81L159.99-62.81Q162.50-61.25 163.86-58.91L163.86-58.91L163.86-58.91Q165.23-56.56 165.23-53.45L165.23-53.45L165.23-53.45Q165.23-51.04 163.64-49.26L163.64-49.26L163.64-49.26Q162.06-47.48 159.20-47.48L159.20-47.48L159.20-47.48Q156.47-47.48 155.04-48.65L155.04-48.65L155.04-48.65Q153.61-49.83 153.61-51.86L153.61-51.86L153.61-51.86Q153.61-53.19 154.28-53.96L154.28-53.96L154.28-53.96Q154.95-54.72 155.77-55.19L155.77-55.19L155.77-55.19Q156.60-55.67 157.26-56.02L157.26-56.02L157.26-56.02Q157.93-56.37 157.93-56.94L157.93-56.94L157.93-56.94Q157.93-58.72 156.03-59.76L156.03-59.76L156.03-59.76Q154.12-60.81 151.14-60.81ZM199.13-60.81L199.13-60.81L199.13-60.81Q197.67-60.81 196.36-60.43L196.36-60.43L196.36-60.43Q195.06-60.05 194.05-59.19L194.05-59.19L194.05-59.19Q193.03-58.33 192.46-57.03L192.46-57.03L192.46-57.03Q191.89-55.73 191.89-53.96L191.89-53.96L191.89-53.96Q191.89-51.48 193.70-49.04L193.70-49.04L193.70-49.04Q195.51-46.59 198.21-43.96L198.21-43.96L198.21-43.96Q200.90-41.32 204.05-38.50L204.05-38.50L204.05-38.50Q207.19-35.67 209.89-32.53L209.89-32.53L209.89-32.53Q212.58-29.39 214.39-25.83L214.39-25.83L214.39-25.83Q216.20-22.28 216.20-18.22L216.20-18.22L216.20-18.22Q216.20-13.65 214.65-10.09L214.65-10.09L214.65-10.09Q213.09-6.54 210.20-4.06L210.20-4.06L210.20-4.06Q207.31-1.59 203.22-0.29L203.22-0.29L203.22-0.29Q199.13 1.02 194.11 1.02L194.11 1.02L194.11 1.02Q189.73 1.02 186.18-0.22L186.18-0.22L186.18-0.22Q182.62-1.46 179.86-3.27L179.86-3.27L179.86-3.27Q177.10-5.08 175.13-7.11L175.13-7.11L175.13-7.11Q173.16-9.14 172.08-10.79L172.08-10.79L174.31-12.38L174.31-12.38Q175.13-11.43 176.40-10.31L176.40-10.31L176.40-10.31Q177.67-9.20 179.23-8.25L179.23-8.25L179.23-8.25Q180.78-7.30 182.56-6.70L182.56-6.70L182.56-6.70Q184.34-6.09 186.18-6.09L186.18-6.09L186.18-6.09Q190.75-6.09 193.67-8.28L193.67-8.28L193.67-8.28Q196.59-10.47 196.59-14.79L196.59-14.79L196.59-14.79Q196.59-17.20 195-19.77L195-19.77L195-19.77Q193.41-22.34 191.00-25.07L191.00-25.07L191.00-25.07Q188.59-27.80 185.80-30.72L185.80-30.72L185.80-30.72Q183.00-33.64 180.59-36.75L180.59-36.75L180.59-36.75Q178.18-39.86 176.59-43.16L176.59-43.16L176.59-43.16Q175.00-46.46 175.00-50.02L175.00-50.02L175.00-50.02Q175.00-54.02 176.62-57.00L176.62-57.00L176.62-57.00Q178.24-59.99 180.94-61.95L180.94-61.95L180.94-61.95Q183.64-63.92 187.10-64.90L187.10-64.90L187.10-64.90Q190.56-65.89 194.24-65.89L194.24-65.89L194.24-65.89Q198.49-65.89 201.98-65.13L201.98-65.13L201.98-65.13Q205.47-64.37 207.98-62.81L207.98-62.81L207.98-62.81Q210.49-61.25 211.85-58.91L211.85-58.91L211.85-58.91Q213.22-56.56 213.22-53.45L213.22-53.45L213.22-53.45Q213.22-51.04 211.63-49.26L211.63-49.26L211.63-49.26Q210.04-47.48 207.19-47.48L207.19-47.48L207.19-47.48Q204.46-47.48 203.03-48.65L203.03-48.65L203.03-48.65Q201.60-49.83 201.60-51.86L201.60-51.86L201.60-51.86Q201.60-53.19 202.27-53.96L202.27-53.96L202.27-53.96Q202.93-54.72 203.76-55.19L203.76-55.19L203.76-55.19Q204.58-55.67 205.25-56.02L205.25-56.02L205.25-56.02Q205.92-56.37 205.92-56.94L205.92-56.94L205.92-56.94Q205.92-58.72 204.01-59.76L204.01-59.76L204.01-59.76Q202.11-60.81 199.13-60.81ZM269.46-43.93L244.38-29.14L244.38-29.14Q244.38-27.10 244.99-24.72L244.99-24.72L244.99-24.72Q245.59-22.34 246.73-19.93L246.73-19.93L246.73-19.93Q247.88-17.52 249.56-15.33L249.56-15.33L249.56-15.33Q251.24-13.14 253.43-11.43L253.43-11.43L253.43-11.43Q255.62-9.71 258.29-8.70L258.29-8.70L258.29-8.70Q260.95-7.68 264.13-7.68L264.13-7.68L264.13-7.68Q266.35-7.68 268.25-8.19L268.25-8.19L268.25-8.19Q270.16-8.70 271.81-9.58L271.81-9.58L271.81-9.58Q273.46-10.47 274.98-11.65L274.98-11.65L274.98-11.65Q276.50-12.82 278.03-14.16L278.03-14.16L279.61-12.63L279.61-12.63Q278.15-10.66 275.87-8.32L275.87-8.32L275.87-8.32Q273.58-5.97 270.35-3.90L270.35-3.90L270.35-3.90Q267.11-1.84 262.79-0.48L262.79-0.48L262.79-0.48Q258.48 0.89 252.95 0.89L252.95 0.89L252.95 0.89Q247.43 0.89 242.19-1.11L242.19-1.11L242.19-1.11Q236.96-3.11 232.90-7.11L232.90-7.11L232.90-7.11Q228.83-11.11 226.39-17.08L226.39-17.08L226.39-17.08Q223.95-23.04 223.95-31.04L223.95-31.04L223.95-31.04Q223.95-36.82 225.41-41.64L225.41-41.64L225.41-41.64Q226.87-46.46 229.37-50.34L229.37-50.34L229.37-50.34Q231.88-54.21 235.21-57.13L235.21-57.13L235.21-57.13Q238.54-60.05 242.23-61.98L242.23-61.98L242.23-61.98Q245.91-63.92 249.75-64.90L249.75-64.90L249.75-64.90Q253.59-65.89 257.14-65.89L257.14-65.89L257.14-65.89Q261.84-65.89 265.33-64.87L265.33-64.87L265.33-64.87Q268.82-63.86 271.14-62.14L271.14-62.14L271.14-62.14Q273.46-60.43 274.60-58.18L274.60-58.18L274.60-58.18Q275.74-55.92 275.74-53.45L275.74-53.45L275.74-53.45Q275.74-50.46 274.03-48.08L274.03-48.08L274.03-48.08Q272.31-45.70 269.46-43.93L269.46-43.93ZM243.75-34.34L257.14-42.02L257.14-42.02Q257.97-42.53 258.51-43.01L258.51-43.01L258.51-43.01Q259.05-43.48 259.37-44.15L259.37-44.15L259.37-44.15Q259.68-44.81 259.84-45.80L259.84-45.80L259.84-45.80Q260-46.78 260-48.24L260-48.24L260-48.24Q260-49.83 259.65-51.77L259.65-51.77L259.65-51.77Q259.30-53.70 258.48-55.42L258.48-55.42L258.48-55.42Q257.65-57.13 256.38-58.27L256.38-58.27L256.38-58.27Q255.11-59.41 253.33-59.41L253.33-59.41L253.33-59.41Q251.05-59.41 249.43-58.05L249.43-58.05L249.43-58.05Q247.81-56.68 246.77-54.53L246.77-54.53L246.77-54.53Q245.72-52.37 245.11-49.61L245.11-49.61L245.11-49.61Q244.51-46.85 244.19-44.05L244.19-44.05L244.19-44.05Q243.88-41.26 243.81-38.69L243.81-38.69L243.81-38.69Q243.75-36.12 243.75-34.34L243.75-34.34ZM333.32-11.43L333.32-11.43L333.32-11.43Q333.32-2.79 330.17 3.62L330.17 3.62L330.17 3.62Q327.03 10.03 321.57 14.31L321.57 14.31L321.57 14.31Q316.11 18.60 308.72 20.73L308.72 20.73L308.72 20.73Q301.32 22.85 292.88 22.85L292.88 22.85L292.88 22.85Q289.64 22.85 286.66 22.31L286.66 22.31L286.66 22.31Q283.68 21.77 281.39 20.82L281.39 20.82L281.39 20.82Q279.11 19.87 277.74 18.57L277.74 18.57L277.74 18.57Q276.38 17.27 276.38 15.74L276.38 15.74L276.38 15.74Q276.38 14.60 276.69 13.43L276.69 13.43L276.69 13.43Q277.01 12.25 277.65 11.30L277.65 11.30L277.65 11.30Q278.28 10.35 279.20 9.71L279.20 9.71L279.20 9.71Q280.12 9.08 281.26 9.08L281.26 9.08L281.26 9.08Q281.96 9.08 282.50 9.78L282.50 9.78L282.50 9.78Q283.04 10.47 283.61 11.52L283.61 11.52L283.61 11.52Q284.18 12.57 284.91 13.77L284.91 13.77L284.91 13.77Q285.64 14.98 286.82 16.03L286.82 16.03L286.82 16.03Q287.99 17.08 289.64 17.77L289.64 17.77L289.64 17.77Q291.29 18.47 293.77 18.47L293.77 18.47L293.77 18.47Q298.66 18.47 302.18 16.69L302.18 16.69L302.18 16.69Q305.70 14.92 307.99 11.68L307.99 11.68L307.99 11.68Q310.27 8.44 311.38 3.97L311.38 3.97L311.38 3.97Q312.50-0.51 312.50-5.84L312.50-5.84L312.50-84.74L312.50-84.74Q312.50-86.14 312.18-86.96L312.18-86.96L312.18-86.96Q311.86-87.79 311.29-88.26L311.29-88.26L311.29-88.26Q310.72-88.74 309.92-88.90L309.92-88.90L309.92-88.90Q309.13-89.06 308.18-89.06L308.18-89.06L308.18-89.06Q306.78-89.06 304.72-88.61L304.72-88.61L304.72-88.61Q302.66-88.17 300.37-87.28L300.37-87.28L300.37-87.28Q298.09-86.39 295.77-85.09L295.77-85.09L295.77-85.09Q293.45-83.79 291.64-82.14L291.64-82.14L291.64-82.14Q289.83-80.49 288.69-78.46L288.69-78.46L288.69-78.46Q287.55-76.43 287.55-74.08L287.55-74.08L287.55-74.08Q287.55-72.05 288.09-70.84L288.09-70.84L288.09-70.84Q288.63-69.63 289.33-69.03L289.33-69.03L289.33-69.03Q290.02-68.43 290.75-68.27L290.75-68.27L290.75-68.27Q291.48-68.11 291.80-68.11L291.80-68.11L291.80-68.11Q293.39-68.11 294.40-68.65L294.40-68.65L294.40-68.65Q295.42-69.19 296.25-69.79L296.25-69.79L296.25-69.79Q297.07-70.40 297.80-70.94L297.80-70.94L297.80-70.94Q298.53-71.47 299.48-71.47L299.48-71.47L299.48-71.47Q300.24-71.47 301.10-71.13L301.10-71.13L301.10-71.13Q301.96-70.78 302.69-70.01L302.69-70.01L302.69-70.01Q303.42-69.25 303.93-68.02L303.93-68.02L303.93-68.02Q304.43-66.78 304.43-65L304.43-65L304.43-65Q304.43-62.46 303.45-60.62L303.45-60.62L303.45-60.62Q302.47-58.78 300.91-57.54L300.91-57.54L300.91-57.54Q299.36-56.30 297.36-55.70L297.36-55.70L297.36-55.70Q295.36-55.10 293.39-55.10L293.39-55.10L293.39-55.10Q290.34-55.10 287.90-56.15L287.90-56.15L287.90-56.15Q285.45-57.19 283.74-59.03L283.74-59.03L283.74-59.03Q282.03-60.87 281.14-63.35L281.14-63.35L281.14-63.35Q280.25-65.83 280.25-68.62L280.25-68.62L280.25-68.62Q280.25-73.00 281.84-76.65L281.84-76.65L281.84-76.65Q283.42-80.30 286.18-83.22L286.18-83.22L286.18-83.22Q288.95-86.14 292.66-88.33L292.66-88.33L292.66-88.33Q296.37-90.52 300.69-91.98L300.69-91.98L300.69-91.98Q305.00-93.44 309.70-94.17L309.70-94.17L309.70-94.17Q314.40-94.90 319.10-94.90L319.10-94.90L319.10-94.90Q324.30-94.90 327.19-93.91L327.19-93.91L327.19-93.91Q330.08-92.93 331.44-91.53L331.44-91.53L331.44-91.53Q332.81-90.14 333.06-88.61L333.06-88.61L333.06-88.61Q333.32-87.09 333.32-86.07L333.32-86.07L333.32-11.43ZM392.29-43.93L367.21-29.14L367.21-29.14Q367.21-27.10 367.81-24.72L367.81-24.72L367.81-24.72Q368.42-22.34 369.56-19.93L369.56-19.93L369.56-19.93Q370.70-17.52 372.39-15.33L372.39-15.33L372.39-15.33Q374.07-13.14 376.26-11.43L376.26-11.43L376.26-11.43Q378.45-9.71 381.11-8.70L381.11-8.70L381.11-8.70Q383.78-7.68 386.95-7.68L386.95-7.68L386.95-7.68Q389.17-7.68 391.08-8.19L391.08-8.19L391.08-8.19Q392.98-8.70 394.63-9.58L394.63-9.58L394.63-9.58Q396.28-10.47 397.81-11.65L397.81-11.65L397.81-11.65Q399.33-12.82 400.85-14.16L400.85-14.16L402.44-12.63L402.44-12.63Q400.98-10.66 398.70-8.32L398.70-8.32L398.70-8.32Q396.41-5.97 393.17-3.90L393.17-3.90L393.17-3.90Q389.94-1.84 385.62-0.48L385.62-0.48L385.62-0.48Q381.30 0.89 375.78 0.89L375.78 0.89L375.78 0.89Q370.26 0.89 365.02-1.11L365.02-1.11L365.02-1.11Q359.79-3.11 355.72-7.11L355.72-7.11L355.72-7.11Q351.66-11.11 349.22-17.08L349.22-17.08L349.22-17.08Q346.77-23.04 346.77-31.04L346.77-31.04L346.77-31.04Q346.77-36.82 348.23-41.64L348.23-41.64L348.23-41.64Q349.69-46.46 352.20-50.34L352.20-50.34L352.20-50.34Q354.71-54.21 358.04-57.13L358.04-57.13L358.04-57.13Q361.37-60.05 365.05-61.98L365.05-61.98L365.05-61.98Q368.74-63.92 372.58-64.90L372.58-64.90L372.58-64.90Q376.42-65.89 379.97-65.89L379.97-65.89L379.97-65.89Q384.67-65.89 388.16-64.87L388.16-64.87L388.16-64.87Q391.65-63.86 393.97-62.14L393.97-62.14L393.97-62.14Q396.28-60.43 397.43-58.18L397.43-58.18L397.43-58.18Q398.57-55.92 398.57-53.45L398.57-53.45L398.57-53.45Q398.57-50.46 396.86-48.08L396.86-48.08L396.86-48.08Q395.14-45.70 392.29-43.93L392.29-43.93ZM366.58-34.34L379.97-42.02L379.97-42.02Q380.80-42.53 381.34-43.01L381.34-43.01L381.34-43.01Q381.88-43.48 382.19-44.15L382.19-44.15L382.19-44.15Q382.51-44.81 382.67-45.80L382.67-45.80L382.67-45.80Q382.83-46.78 382.83-48.24L382.83-48.24L382.83-48.24Q382.83-49.83 382.48-51.77L382.48-51.77L382.48-51.77Q382.13-53.70 381.30-55.42L381.30-55.42L381.30-55.42Q380.48-57.13 379.21-58.27L379.21-58.27L379.21-58.27Q377.94-59.41 376.16-59.41L376.16-59.41L376.16-59.41Q373.88-59.41 372.26-58.05L372.26-58.05L372.26-58.05Q370.64-56.68 369.59-54.53L369.59-54.53L369.59-54.53Q368.54-52.37 367.94-49.61L367.94-49.61L367.94-49.61Q367.34-46.85 367.02-44.05L367.02-44.05L367.02-44.05Q366.70-41.26 366.64-38.69L366.64-38.69L366.64-38.69Q366.58-36.12 366.58-34.34L366.58-34.34ZM431.39-60.81L431.39-60.81L431.39-60.81Q429.93-60.81 428.63-60.43L428.63-60.43L428.63-60.43Q427.32-60.05 426.31-59.19L426.31-59.19L426.31-59.19Q425.29-58.33 424.72-57.03L424.72-57.03L424.72-57.03Q424.15-55.73 424.15-53.96L424.15-53.96L424.15-53.96Q424.15-51.48 425.96-49.04L425.96-49.04L425.96-49.04Q427.77-46.59 430.47-43.96L430.47-43.96L430.47-43.96Q433.16-41.32 436.31-38.50L436.31-38.50L436.31-38.50Q439.45-35.67 442.15-32.53L442.15-32.53L442.15-32.53Q444.84-29.39 446.65-25.83L446.65-25.83L446.65-25.83Q448.46-22.28 448.46-18.22L448.46-18.22L448.46-18.22Q448.46-13.65 446.91-10.09L446.91-10.09L446.91-10.09Q445.35-6.54 442.46-4.06L442.46-4.06L442.46-4.06Q439.58-1.59 435.48-0.29L435.48-0.29L435.48-0.29Q431.39 1.02 426.37 1.02L426.37 1.02L426.37 1.02Q421.99 1.02 418.44-0.22L418.44-0.22L418.44-0.22Q414.88-1.46 412.12-3.27L412.12-3.27L412.12-3.27Q409.36-5.08 407.39-7.11L407.39-7.11L407.39-7.11Q405.42-9.14 404.35-10.79L404.35-10.79L406.57-12.38L406.57-12.38Q407.39-11.43 408.66-10.31L408.66-10.31L408.66-10.31Q409.93-9.20 411.49-8.25L411.49-8.25L411.49-8.25Q413.04-7.30 414.82-6.70L414.82-6.70L414.82-6.70Q416.60-6.09 418.44-6.09L418.44-6.09L418.44-6.09Q423.01-6.09 425.93-8.28L425.93-8.28L425.93-8.28Q428.85-10.47 428.85-14.79L428.85-14.79L428.85-14.79Q428.85-17.20 427.26-19.77L427.26-19.77L427.26-19.77Q425.67-22.34 423.26-25.07L423.26-25.07L423.26-25.07Q420.85-27.80 418.06-30.72L418.06-30.72L418.06-30.72Q415.26-33.64 412.85-36.75L412.85-36.75L412.85-36.75Q410.44-39.86 408.85-43.16L408.85-43.16L408.85-43.16Q407.27-46.46 407.27-50.02L407.27-50.02L407.27-50.02Q407.27-54.02 408.88-57.00L408.88-57.00L408.88-57.00Q410.50-59.99 413.20-61.95L413.20-61.95L413.20-61.95Q415.90-63.92 419.36-64.90L419.36-64.90L419.36-64.90Q422.82-65.89 426.50-65.89L426.50-65.89L426.50-65.89Q430.75-65.89 434.24-65.13L434.24-65.13L434.24-65.13Q437.73-64.37 440.24-62.81L440.24-62.81L440.24-62.81Q442.75-61.25 444.11-58.91L444.11-58.91L444.11-58.91Q445.48-56.56 445.48-53.45L445.48-53.45L445.48-53.45Q445.48-51.04 443.89-49.26L443.89-49.26L443.89-49.26Q442.30-47.48 439.45-47.48L439.45-47.48L439.45-47.48Q436.72-47.48 435.29-48.65L435.29-48.65L435.29-48.65Q433.86-49.83 433.86-51.86L433.86-51.86L433.86-51.86Q433.86-53.19 434.53-53.96L434.53-53.96L434.53-53.96Q435.20-54.72 436.02-55.19L436.02-55.19L436.02-55.19Q436.85-55.67 437.51-56.02L437.51-56.02L437.51-56.02Q438.18-56.37 438.18-56.94L438.18-56.94L438.18-56.94Q438.18-58.72 436.27-59.76L436.27-59.76L436.27-59.76Q434.37-60.81 431.39-60.81ZM479.38-60.81L479.38-60.81L479.38-60.81Q477.92-60.81 476.61-60.43L476.61-60.43L476.61-60.43Q475.31-60.05 474.30-59.19L474.30-59.19L474.30-59.19Q473.28-58.33 472.71-57.03L472.71-57.03L472.71-57.03Q472.14-55.73 472.14-53.96L472.14-53.96L472.14-53.96Q472.14-51.48 473.95-49.04L473.95-49.04L473.95-49.04Q475.76-46.59 478.45-43.96L478.45-43.96L478.45-43.96Q481.15-41.32 484.29-38.50L484.29-38.50L484.29-38.50Q487.44-35.67 490.13-32.53L490.13-32.53L490.13-32.53Q492.83-29.39 494.64-25.83L494.64-25.83L494.64-25.83Q496.45-22.28 496.45-18.22L496.45-18.22L496.45-18.22Q496.45-13.65 494.90-10.09L494.90-10.09L494.90-10.09Q493.34-6.54 490.45-4.06L490.45-4.06L490.45-4.06Q487.56-1.59 483.47-0.29L483.47-0.29L483.47-0.29Q479.38 1.02 474.36 1.02L474.36 1.02L474.36 1.02Q469.98 1.02 466.43-0.22L466.43-0.22L466.43-0.22Q462.87-1.46 460.11-3.27L460.11-3.27L460.11-3.27Q457.35-5.08 455.38-7.11L455.38-7.11L455.38-7.11Q453.41-9.14 452.33-10.79L452.33-10.79L454.56-12.38L454.56-12.38Q455.38-11.43 456.65-10.31L456.65-10.31L456.65-10.31Q457.92-9.20 459.48-8.25L459.48-8.25L459.48-8.25Q461.03-7.30 462.81-6.70L462.81-6.70L462.81-6.70Q464.58-6.09 466.43-6.09L466.43-6.09L466.43-6.09Q471.00-6.09 473.92-8.28L473.92-8.28L473.92-8.28Q476.84-10.47 476.84-14.79L476.84-14.79L476.84-14.79Q476.84-17.20 475.25-19.77L475.25-19.77L475.25-19.77Q473.66-22.34 471.25-25.07L471.25-25.07L471.25-25.07Q468.84-27.80 466.04-30.72L466.04-30.72L466.04-30.72Q463.25-33.64 460.84-36.75L460.84-36.75L460.84-36.75Q458.43-39.86 456.84-43.16L456.84-43.16L456.84-43.16Q455.25-46.46 455.25-50.02L455.25-50.02L455.25-50.02Q455.25-54.02 456.87-57.00L456.87-57.00L456.87-57.00Q458.49-59.99 461.19-61.95L461.19-61.95L461.19-61.95Q463.89-63.92 467.35-64.90L467.35-64.90L467.35-64.90Q470.81-65.89 474.49-65.89L474.49-65.89L474.49-65.89Q478.74-65.89 482.23-65.13L482.23-65.13L482.23-65.13Q485.72-64.37 488.23-62.81L488.23-62.81L488.23-62.81Q490.74-61.25 492.10-58.91L492.10-58.91L492.10-58.91Q493.47-56.56 493.47-53.45L493.47-53.45L493.47-53.45Q493.47-51.04 491.88-49.26L491.88-49.26L491.88-49.26Q490.29-47.48 487.44-47.48L487.44-47.48L487.44-47.48Q484.71-47.48 483.28-48.65L483.28-48.65L483.28-48.65Q481.85-49.83 481.85-51.86L481.85-51.86L481.85-51.86Q481.85-53.19 482.52-53.96L482.52-53.96L482.52-53.96Q483.18-54.72 484.01-55.19L484.01-55.19L484.01-55.19Q484.83-55.67 485.50-56.02L485.50-56.02L485.50-56.02Q486.17-56.37 486.17-56.94L486.17-56.94L486.17-56.94Q486.17-58.72 484.26-59.76L484.26-59.76L484.26-59.76Q482.36-60.81 479.38-60.81ZM549.71-43.93L524.63-29.14L524.63-29.14Q524.63-27.10 525.24-24.72L525.24-24.72L525.24-24.72Q525.84-22.34 526.98-19.93L526.98-19.93L526.98-19.93Q528.13-17.52 529.81-15.33L529.81-15.33L529.81-15.33Q531.49-13.14 533.68-11.43L533.68-11.43L533.68-11.43Q535.87-9.71 538.54-8.70L538.54-8.70L538.54-8.70Q541.20-7.68 544.38-7.68L544.38-7.68L544.38-7.68Q546.60-7.68 548.50-8.19L548.50-8.19L548.50-8.19Q550.41-8.70 552.06-9.58L552.06-9.58L552.06-9.58Q553.71-10.47 555.23-11.65L555.23-11.65L555.23-11.65Q556.75-12.82 558.28-14.16L558.28-14.16L559.86-12.63L559.86-12.63Q558.40-10.66 556.12-8.32L556.12-8.32L556.12-8.32Q553.83-5.97 550.60-3.90L550.60-3.90L550.60-3.90Q547.36-1.84 543.04-0.48L543.04-0.48L543.04-0.48Q538.73 0.89 533.20 0.89L533.20 0.89L533.20 0.89Q527.68 0.89 522.44-1.11L522.44-1.11L522.44-1.11Q517.21-3.11 513.14-7.11L513.14-7.11L513.14-7.11Q509.08-11.11 506.64-17.08L506.64-17.08L506.64-17.08Q504.19-23.04 504.19-31.04L504.19-31.04L504.19-31.04Q504.19-36.82 505.65-41.64L505.65-41.64L505.65-41.64Q507.11-46.46 509.62-50.34L509.62-50.34L509.62-50.34Q512.13-54.21 515.46-57.13L515.46-57.13L515.46-57.13Q518.79-60.05 522.48-61.98L522.48-61.98L522.48-61.98Q526.16-63.92 530.00-64.90L530.00-64.90L530.00-64.90Q533.84-65.89 537.39-65.89L537.39-65.89L537.39-65.89Q542.09-65.89 545.58-64.87L545.58-64.87L545.58-64.87Q549.07-63.86 551.39-62.14L551.39-62.14L551.39-62.14Q553.71-60.43 554.85-58.18L554.85-58.18L554.85-58.18Q555.99-55.92 555.99-53.45L555.99-53.45L555.99-53.45Q555.99-50.46 554.28-48.08L554.28-48.08L554.28-48.08Q552.56-45.70 549.71-43.93L549.71-43.93ZM524.00-34.34L537.39-42.02L537.39-42.02Q538.22-42.53 538.76-43.01L538.76-43.01L538.76-43.01Q539.30-43.48 539.61-44.15L539.61-44.15L539.61-44.15Q539.93-44.81 540.09-45.80L540.09-45.80L540.09-45.80Q540.25-46.78 540.25-48.24L540.25-48.24L540.25-48.24Q540.25-49.83 539.90-51.77L539.90-51.77L539.90-51.77Q539.55-53.70 538.73-55.42L538.73-55.42L538.73-55.42Q537.90-57.13 536.63-58.27L536.63-58.27L536.63-58.27Q535.36-59.41 533.58-59.41L533.58-59.41L533.58-59.41Q531.30-59.41 529.68-58.05L529.68-58.05L529.68-58.05Q528.06-56.68 527.01-54.53L527.01-54.53L527.01-54.53Q525.97-52.37 525.36-49.61L525.36-49.61L525.36-49.61Q524.76-46.85 524.44-44.05L524.44-44.05L524.44-44.05Q524.13-41.26 524.06-38.69L524.06-38.69L524.06-38.69Q524.00-36.12 524.00-34.34L524.00-34.34Z" fill="#000000"></path></g></g><style>text {
  font-size: 64px;
  font-family: Arial Black;
  dominant-baseline: central;
  text-anchor: middle;
}</style></svg>
